<svg version="1.1" xmlns="http://www.w3.org/2000/svg" viewBox="0 0 1600 1680" width="100%">
<title>Nextcloud Update Manager</title>
<desc>Logo: blaue Wolke mit Nextcloud-Kreisen und Upload-Pfeil, umgeben von grünen Kreispfeilen</desc>
<defs>
	<linearGradient id="Gradient1" gradientUnits="userSpaceOnUse" x1="776.236" y1="954.328" x2="734.773" y2="395.5">
		<stop class="stop0" offset="0" stop-opacity="1" stop-color="rgb(84,151,82)"/>
		<stop class="stop1" offset="1" stop-opacity="1" stop-color="rgb(123,186,95)"/>
	</linearGradient>
	<linearGradient id="Gradient2" gradientUnits="userSpaceOnUse" x1="1137.71" y1="796.628" x2="1108.6" y2="353.042">
		<stop class="stop0" offset="0" stop-opacity="1" stop-color="rgb(84,151,82)"/>
		<stop class="stop1" offset="1" stop-opacity="1" stop-color="rgb(123,186,95)"/>
	</linearGradient>
	<linearGradient id="Gradient3" gradientUnits="userSpaceOnUse" x1="765.109" y1="799.771" x2="738.163" y2="281.965">
		<stop class="stop0" offset="0" stop-opacity="1" stop-color="rgb(1,112,200)"/>
		<stop class="stop1" offset="1" stop-opacity="1" stop-color="rgb(0,152,236)"/>
	</linearGradient>
</defs>
<path transform="translate(0,0)" fill="url(#Gradient3)" d="M 886.975 795.899 C 832.174 796.538 776.307 796.252 721.437 796.04 C 672.752 795.853 620.22 798.845 572.701 789.898 C 526.005 781.106 481.964 750.076 455.611 710.656 C 425.813 666.488 415.19 612.127 426.169 559.99 C 438.058 502.246 481.713 449.689 535.887 426.662 C 561.161 415.919 588.575 411.496 615.853 411.891 C 626.527 412.046 674.457 420.014 677.132 419.282 C 678.428 418.926 689.33 395.601 690.721 392.819 C 708.101 358.054 733.588 329.905 766.07 308.687 C 819.149 274.015 893.424 264.59 954.849 277.7 C 991.631 285.55 1024.35 301.43 1055.7 321.741 C 1062.17 325.929 1071.02 330.665 1075.23 337.208 C 1076 343.507 1041.08 429.165 1036.12 442.033 C 1027.32 465.465 1018.17 488.765 1008.67 511.925 C 1005.29 520.17 1000.81 533.266 995.821 540.246 L 1001.24 546.934 C 1008.37 565.481 1013.83 566.1 1015.59 588.59 C 1018.38 624.321 1001.05 655.842 968.103 670.906 C 963.236 673.01 957.377 674.809 952.232 676.533 C 947.625 676.386 941.306 676.858 936.561 677.079 C 928.066 687.453 923.701 705.494 918.123 717.597 C 906.547 742.713 898.003 770.812 886.975 795.899 z"/>
<path transform="translate(0,0)" fill="rgb(254,254,254)" d="M 645.973 556.31 C 661.033 525.956 678.645 501.828 711.072 489.123 C 781.041 461.708 843.788 493.344 870.264 561.374 C 882.081 541.154 892.715 528.441 916.127 520.923 C 937.093 514.191 958.345 518.118 977.781 527.622 C 983.935 530.63 989.645 537.33 995.821 540.246 L 1001.24 546.934 C 1008.37 565.481 1013.83 566.1 1015.59 588.59 C 1018.38 624.321 1001.05 655.842 968.103 670.906 C 963.236 673.01 957.377 674.809 952.232 676.533 C 947.625 676.386 941.306 676.858 936.561 677.079 C 926.165 674.412 917.566 675.473 905.246 670.366 C 888.362 663.367 874.988 649.769 867.627 633.219 C 867.035 634.801 866.411 636.37 865.755 637.926 C 855.01 663.312 828.246 689.606 802.506 699.068 C 740.179 721.979 673.101 693.881 648.979 632.405 C 630.409 669.23 596.809 683.649 556.692 673.432 C 537.134 668.272 520.452 655.506 510.361 637.976 C 499.433 619.099 497.265 593.344 502.865 572.362 C 520.625 505.819 613.091 497.642 645.973 556.31 z"/>
<path transform="translate(0,0)" fill="rgb(0,116,205)" d="M 832.092 605.861 C 826.334 641.822 795.495 668.397 759.078 668.781 C 722.661 669.165 691.268 643.246 684.752 607.415 C 678.236 571.583 698.494 536.272 732.715 523.81 C 766.936 511.349 805.156 525.366 823.207 556.998 C 831.652 571.796 834.787 589.036 832.092 605.861 z"/>
<path transform="translate(0,0)" fill="rgb(0,116,205)" d="M 823.207 556.998 C 831.652 571.796 834.787 589.036 832.092 605.861 C 829.711 595.33 830.283 588.493 829.017 578.119 C 828.269 571.985 822.227 563.151 823.207 556.998 z"/>
<path transform="translate(0,0)" fill="rgb(0,116,205)" d="M 573.124 558.792 C 586.795 556.67 600.548 562.096 609.087 572.981 C 617.627 583.866 619.623 598.515 614.307 611.288 C 608.992 624.061 597.193 632.969 583.452 634.582 C 562.745 637.013 543.905 622.414 541.09 601.756 C 538.275 581.098 552.522 561.991 573.124 558.792 z"/>
<path transform="translate(0,0)" fill="rgb(0,116,205)" d="M 930.626 560.61 C 951.047 557.065 970.471 570.757 973.996 591.182 C 977.521 611.606 963.809 631.017 943.381 634.521 C 922.982 638.02 903.604 624.332 900.084 603.936 C 896.565 583.541 910.234 564.15 930.626 560.61 z"/>
<path transform="translate(0,0)" fill="url(#Gradient2)" d="M 1094.96 347.297 C 1101.6 355.188 1109.16 361.919 1115.92 369.614 C 1138.82 395.673 1158.46 423.984 1162.7 459.171 C 1195.08 452.259 1256.02 475.33 1282.91 492.832 C 1358.48 542.029 1378.47 646.107 1329.39 720.661 C 1304.85 757.159 1266.89 782.493 1223.78 791.153 C 1190.31 798.023 1145.67 796.147 1110.83 795.967 L 972.196 796.068 C 951.645 796.166 926.559 795.287 906.522 796.417 C 914.706 769.267 925.621 745.074 936.14 718.755 C 941.055 706.456 946.473 687.482 952.232 676.533 C 957.377 674.809 963.236 673.01 968.103 670.906 C 1001.05 655.842 1018.38 624.321 1015.59 588.59 C 1013.83 566.1 1008.37 565.481 1001.24 546.934 C 1004.28 549.144 1006.09 551.25 1009.38 551.63 C 1013.74 544.147 1022.18 522.401 1025.87 513.463 C 1036.84 486.871 1047.65 460.216 1058.31 433.499 C 1069.46 405.776 1084.98 373.738 1094.96 347.297 z"/>
<path transform="translate(0,0)" fill="rgb(254,254,254)" d="M 1129.21 501.707 C 1135.33 504.491 1203.94 595.154 1210.46 606.829 C 1199.2 608.778 1171.66 608.228 1159.16 608.261 C 1159.87 641.144 1159.96 674.037 1159.43 706.923 L 1130.31 706.859 L 1096.28 707.066 C 1095.79 674.081 1095.81 641.091 1096.33 608.106 C 1080.12 608.184 1061.08 608.435 1045.14 607.271 C 1051.71 596.469 1073.21 571.236 1082.33 560.573 C 1092.75 548.399 1118.98 510.745 1129.21 501.707 z"/>
<path transform="translate(0,0)" fill="url(#Gradient1)" d="M 411.269 794.22 C 403.926 787.037 397.438 776.511 391.421 768.338 C 321.788 673.75 320.666 535.312 404.55 448.753 C 412.558 440.49 439.308 414.44 451.085 413.885 C 451.388 414.291 451.69 414.698 451.993 415.104 C 442.553 427.12 425.364 448.813 418.267 460.817 C 393.382 502.781 380.149 550.627 379.933 599.415 C 380.764 608.616 380.444 616.51 381.374 625.725 C 384.297 654.713 393.305 673.895 403.447 699.992 C 416.291 723.259 425.558 738.52 443.009 758.132 C 512.776 836.539 611.786 880.921 714.467 896.051 C 724.468 897.525 734.074 899.689 744.403 900.215 C 752.918 900.084 763.507 901.311 772.053 902.33 C 793.509 904.887 815.286 903.085 836.592 904.153 C 850.101 904.013 865.238 902.688 878.904 901.907 C 884.254 900.904 892.924 900.433 898.432 900.175 C 953.418 897.595 1002.52 881.497 1053.5 862.845 L 1056.01 861.971 C 1057.29 857.108 1046.47 842.879 1043.21 838.531 C 1042.75 835.219 1042.7 834.19 1044.87 831.776 C 1049.73 829.841 1170.43 827.02 1181.27 828.887 C 1179.28 845.308 1104.63 933.137 1092.6 931.661 C 1089.65 928.306 1089.92 911.545 1090.28 906.792 L 1090.36 905.786 L 1089.33 903.751 C 1081.47 906.69 1078.93 910.175 1070.07 911.682 C 1065.79 912.775 1063.16 913.805 1059.11 915.384 C 1049.58 918.39 1040.32 922.106 1030.91 925.448 C 998.647 936.894 964.113 943.257 930.201 947.422 C 917.019 949.332 891.723 952.625 879.347 951.84 C 783.924 958.654 667.541 947.974 578.877 910.873 C 570.498 907.366 551.537 900.346 544.545 895.621 C 539.207 893.841 520.249 882.892 515.134 879.7 C 488.393 867.649 428.247 819.101 411.269 794.22 z"/>
<path transform="translate(0,0)" fill="rgb(19,73,3)" d="M 544.545 895.621 L 547.11 894.113 C 556.089 896.79 570.537 903.303 579.851 907.119 C 595.118 913.532 610.707 919.146 626.557 923.94 C 687.337 942.492 765.846 949.943 828.903 949.232 C 849.165 949.004 867.964 949.726 888.315 947.871 C 885.73 954.132 884.056 950.396 879.347 951.84 C 783.924 958.654 667.541 947.974 578.877 910.873 C 570.498 907.366 551.537 900.346 544.545 895.621 z"/>
<path transform="translate(0,0)" fill="rgb(52,119,42)" d="M 1053.5 862.845 C 1052.93 863.75 1052.24 864.87 1051.41 866.208 C 1028.77 878.438 991.638 888.782 967.178 894.324 C 938.109 900.911 907.376 904.629 878.904 901.907 C 884.254 900.904 892.924 900.433 898.432 900.175 C 953.418 897.595 1002.52 881.497 1053.5 862.845 z"/>
<path transform="translate(0,0)" fill="rgb(52,119,42)" d="M 1043.21 838.531 C 1042.75 835.219 1042.7 834.19 1044.87 831.776 C 1049.73 829.841 1170.43 827.02 1181.27 828.887 C 1168.17 829.821 1152.76 830.324 1139.93 832.132 C 1109.14 836.475 1078.79 834.016 1047.92 836.21 C 1045.65 837.07 1045.26 837.118 1043.21 838.531 z"/>
<path transform="translate(0,0)" fill="rgb(52,119,42)" d="M 411.269 794.22 C 412.264 794.267 413.486 794.326 414.933 794.395 C 430.583 807.238 446.449 826.443 461.811 838.938 C 478.703 852.678 496.873 862.114 512.742 876.632 C 513.435 877.265 514.613 878.939 515.134 879.7 C 488.393 867.649 428.247 819.101 411.269 794.22 z"/>
<path transform="translate(0,0)" fill="rgb(52,119,42)" d="M 928.257 943.593 C 935.499 940.774 951.274 942.661 957.886 940.95 C 976.866 936.298 995.855 931.682 1014.57 926.2 C 1023.22 923.666 1052.75 911.358 1058.2 912.74 L 1059.11 915.384 C 1049.58 918.39 1040.32 922.106 1030.91 925.448 C 998.647 936.894 964.113 943.257 930.201 947.422 C 928.863 945.161 931.848 947.32 928.257 943.593 z"/>
<path transform="translate(0,0)" fill="rgb(52,119,42)" d="M 403.447 699.992 L 400.686 700.439 C 394.942 695.152 395.08 686.185 392.256 679.939 C 380.84 654.691 374.348 627.401 379.933 599.415 C 380.764 608.616 380.444 616.51 381.374 625.725 C 384.297 654.713 393.305 673.895 403.447 699.992 z"/>
<path transform="translate(0,0)" fill="rgb(19,73,3)" d="M 744.403 900.215 C 752.918 900.084 763.507 901.311 772.053 902.33 C 793.509 904.887 815.286 903.085 836.592 904.153 C 826.704 907.156 778.875 907.632 767.418 905.918 C 760.88 904.94 751.083 902.239 744.403 900.215 z"/>
<path transform="translate(0,0)" fill="rgb(74,143,63)" d="M 1043.21 838.531 C 1045.26 837.118 1045.65 837.07 1047.92 836.21 C 1055.72 846.91 1065.53 838.892 1060.2 861.454 C 1057.77 862.699 1059.1 862.36 1056.01 861.971 C 1057.29 857.108 1046.47 842.879 1043.21 838.531 z"/>
<path transform="translate(0,0)" fill="rgb(52,119,42)" d="M 888.315 947.871 C 893.009 946.097 921.524 944.104 928.257 943.593 C 931.848 947.32 928.863 945.161 930.201 947.422 C 917.019 949.332 891.723 952.625 879.347 951.84 C 884.056 950.396 885.73 954.132 888.315 947.871 z"/>
<path transform="translate(0,0)" fill="rgb(52,119,42)" d="M 1070.07 911.682 C 1073.65 907.502 1085.44 898.802 1090.94 897.278 L 1091.91 898.885 C 1091.43 901.237 1090.99 903.462 1090.36 905.786 L 1089.33 903.751 C 1081.47 906.69 1078.93 910.175 1070.07 911.682 z"/>
<path transform="translate(0,0)" fill="rgb(113,179,94)" d="M 529.688 274.741 C 585.45 222.192 622.726 204.41 693.157 179.141 C 917.203 98.7592 1225.5 191.638 1297.32 436.582 C 1298.53 440.717 1303 454.757 1302.46 458.494 C 1298.94 457.881 1291.78 453.671 1287.98 452.443 C 1279.09 449.576 1267.27 447.93 1258.08 447.438 C 1252.95 437.487 1247.98 427.277 1242.92 417.408 C 1168.51 272.159 1000.01 194.797 840.789 203.763 C 820.977 204.879 793.664 205.506 774.761 210.935 C 766.259 213.063 757.442 215.404 748.936 217.38 C 738.307 220.542 730.595 223.373 720.272 227.502 C 710.415 231.029 696.986 236.531 687.212 238.593 L 686.14 238.826 C 685.925 238.869 685.709 238.911 685.494 238.953 C 643.101 246.582 597.114 284.371 564.807 311.256 C 574.674 321.995 584.433 332.832 594.084 343.765 C 569.137 350.958 545.845 353.224 520.744 359.405 C 506.988 362.799 493.779 367.262 480.39 371.87 C 474.251 373.982 468.327 376.812 461.851 375.122 C 461.361 373.85 460.613 371.393 461.092 370.041 C 466.819 353.866 471.022 335.934 476.949 320.002 C 485.759 296.318 490.611 267.225 501.633 244.826 C 506.567 252.021 522.98 268.724 529.688 274.741 z"/>
<path transform="translate(0,0)" fill="rgb(93,164,77)" d="M 715.773 224.008 C 721.577 222.92 737.1 216.495 744.099 214.33 L 748.936 217.38 C 738.307 220.542 730.595 223.373 720.272 227.502 C 710.415 231.029 696.986 236.531 687.212 238.593 L 686.14 238.826 C 685.925 238.869 685.709 238.911 685.494 238.953 C 685.653 238.462 686.881 235.294 687.067 235.212 C 696.33 231.102 706.308 227.688 715.773 224.008 z"/>
<path transform="translate(0,0)" fill="rgb(93,164,77)" d="M 461.851 375.122 C 466.351 371.863 466.177 369.911 473.05 368.291 C 484.494 365.594 510.012 354.168 520.744 359.405 C 506.988 362.799 493.779 367.262 480.39 371.87 C 474.251 373.982 468.327 376.812 461.851 375.122 z"/>
<path transform="translate(0,0)" fill="rgb(74,143,63)" d="M 744.099 214.33 C 754.319 211.306 764.39 207.565 774.761 210.935 C 766.259 213.063 757.442 215.404 748.936 217.38 L 744.099 214.33 z"/>

<text x="800" y="1190" text-anchor="middle" font-family="Arial, Helvetica, sans-serif" font-size="185" font-weight="bold" fill="rgb(0,116,205)">Nextcloud</text>
<text x="800" y="1355" text-anchor="middle" font-family="Arial, Helvetica, sans-serif" font-size="96" fill="rgb(100,175,80)">Update Manager</text>
</svg>